<?xml version="1.0" encoding="utf-8"?>
<!-- Generator: Adobe Illustrator 25.4.1, SVG Export Plug-In . SVG Version: 6.00 Build 0)  -->
<svg version="1.1" id="Layer_1" xmlns="http://www.w3.org/2000/svg" xmlns:xlink="http://www.w3.org/1999/xlink" x="0px" y="0px"
	 viewBox="0 0 200 23" style="enable-background:new 0 0 200 23;" xml:space="preserve">
<style type="text/css">
	.st0{fill:#FFFFFF;}
</style>
<g>
	<g>
		<path class="st0" d="M19.4,22.7h-1.4c-0.1-0.3-0.2-1.4-0.2-3.6c-0.8,1.5-2.6,3.8-7.2,3.8C4,22.9,0.7,18,0.7,11.7
			C0.7,5,4.2,0,10.8,0c4.8,0,8,2.5,8.7,6.7h-1.7c-1-3.2-3.2-5.1-7.1-5.1c-5.6,0-8.2,4.4-8.2,10c0,5.1,2.5,9.8,7.9,9.8
			c5.6,0,7.2-3.6,7.2-8.6v-0.3h-7.2v-1.6h8.9V22.7z"/>
		<path class="st0" d="M30.6,14.9l-2.8,7.7H26l8.2-22.4h2l8.6,22.4H43l-2.9-7.7H30.6z M39.5,13.3C37,6.7,35.7,3.5,35.3,2h0
			c-0.5,1.7-2,5.7-4,11.4H39.5z"/>
		<path class="st0" d="M50.1,21.2L64.6,1.9H50.9V0.3h15.8v1.5L52.2,21.1H67l-0.3,1.6H50.1V21.2z"/>
		<path class="st0" d="M87.5,11.7H76.1v9.4h12.5l-0.3,1.6h-14V0.3h13.7v1.6h-12v8.2h11.4V11.7z"/>
		<path class="st0" d="M96.4,0.3h1.7v20.8h12l-0.3,1.6H96.4V0.3z"/>
		<path class="st0" d="M117.2,0.3h8c4.1,0,6.9,2.3,6.9,6.2c0,4-2.8,6.4-7.1,6.4h-6v9.8h-1.8V0.3z M119,11.3h6.2
			c3.6,0,5.1-1.9,5.1-4.7c0-3-2-4.7-5-4.7H119V11.3z"/>
		<path class="st0" d="M140.2,0.3h1.7v20.8h12l-0.3,1.6h-13.4V0.3z"/>
		<path class="st0" d="M174.2,11.7h-11.4v9.4h12.5l-0.3,1.6h-14V0.3h13.7v1.6h-12v8.2h11.4V11.7z"/>
		<path class="st0" d="M195.6,22.7l-6.8-10.1h0l-6.7,10.1h-2l7.6-11.4l-7.3-11h2l6.4,9.6h0l6.5-9.6h2l-7.6,10.9l7.8,11.5H195.6z"/>
	</g>
</g>
</svg>
