<?xml version="1.0" encoding="utf-8"?>
<!-- Generator: Adobe Illustrator 25.4.1, SVG Export Plug-In . SVG Version: 6.00 Build 0)  -->
<svg version="1.1" id="Layer_1" xmlns="http://www.w3.org/2000/svg" xmlns:xlink="http://www.w3.org/1999/xlink" x="0px" y="0px"
	 viewBox="0 0 200 23" style="enable-background:new 0 0 200 23;" xml:space="preserve">
<style type="text/css">
	.st0{fill:#FFFFFF;}
</style>
<g>
	<g>
		<path class="st0" d="M19.4,23h-1.5c-0.1-0.3-0.2-1.5-0.2-3.7c-0.8,1.6-2.6,4-7.5,4c-6.6,0-10-5-10-11.6c0-6.9,3.6-12.1,10.4-12.1
			c5,0,8.3,2.6,9,6.9h-1.8c-1-3.3-3.3-5.2-7.3-5.2c-5.8,0-8.4,4.5-8.4,10.3c0,5.3,2.5,10.1,8.2,10.1c5.8,0,7.4-3.8,7.4-8.9v-0.3
			h-7.5v-1.7h9.2V23z"/>
		<path class="st0" d="M30.4,15l-2.9,8h-1.8l8.5-23.1h2.1L45.1,23h-1.9l-3-8H30.4z M39.5,13.3c-2.6-6.9-3.9-10.2-4.4-11.7h0
			c-0.6,1.7-2,5.8-4.1,11.7H39.5z"/>
		<path class="st0" d="M49.8,21.5l15-20H50.6v-1.7h16.3v1.6L52,21.3h15.2L66.9,23H49.8V21.5z"/>
		<path class="st0" d="M87.7,11.6H75.9v9.7h12.9L88.5,23H74.1V-0.1h14.2v1.7H75.9V10h11.8V11.6z"/>
		<path class="st0" d="M96.2-0.1H98v21.5h12.4l-0.3,1.7H96.2V-0.1z"/>
		<path class="st0" d="M117.1-0.1h8.3c4.2,0,7.1,2.3,7.1,6.4c0,4.2-2.9,6.6-7.4,6.6h-6.2V23h-1.8V-0.1z M118.9,11.2h6.4
			c3.7,0,5.3-2,5.3-4.9c0-3.1-2-4.9-5.1-4.9h-6.5V11.2z"/>
		<path class="st0" d="M140.1-0.1h1.8v21.5h12.4L154,23h-13.9V-0.1z"/>
		<path class="st0" d="M174.5,11.6h-11.8v9.7h12.9l-0.3,1.7h-14.4V-0.1h14.2v1.7h-12.4V10h11.8V11.6z"/>
		<path class="st0" d="M195.9,23l-7-10.4h0L182,23H180l7.9-11.8l-7.6-11.4h2.1l6.6,9.9h0l6.7-9.9h2.1L190,11.1l8,11.9H195.9z"/>
	</g>
</g>
</svg>
